<?xml version="1.0" encoding="UTF-8" standalone="no" ?>
<!DOCTYPE svg PUBLIC "-//W3C//DTD SVG 1.1//EN" "http://www.w3.org/Graphics/SVG/1.1/DTD/svg11.dtd">
<svg xmlns="http://www.w3.org/2000/svg" xmlns:xlink="http://www.w3.org/1999/xlink" version="1.1" width="250" height="250" viewBox="0 0 250 250" xml:space="preserve">
<desc>Created with Fabric.js 4.6.0</desc>
<defs>
</defs>
<g transform="matrix(1.11 0 0 1.11 125 125)" id="hrdIHvO4hP2R6ugevow7h"  >
<path style="stroke: rgb(79,70,229); stroke-width: 7; stroke-dasharray: none; stroke-linecap: butt; stroke-dashoffset: 0; stroke-linejoin: miter; stroke-miterlimit: 4; fill: rgb(255,255,255); fill-rule: nonzero; opacity: 1;" vector-effect="non-scaling-stroke"  transform=" translate(0, 0)" d="M 0 -108.54008 C 59.91412 -108.54008 108.54008 -59.91413 108.54008 0 C 108.54008 59.91412 59.91413 108.54008 0 108.54008 C -59.91412 108.54008 -108.54008 59.91413 -108.54008 0 C -108.54008 -59.91412 -59.91413 -108.54008 0 -108.54008 z" stroke-linecap="round" />
</g>
<g transform="matrix(0.24 0 0 0.24 54.36 169.17)" id="ejNY6Bs2I_e5MOwo4EACx"  >
<path style="stroke: rgb(79,70,229); stroke-width: 0; stroke-dasharray: none; stroke-linecap: butt; stroke-dashoffset: 0; stroke-linejoin: miter; stroke-miterlimit: 4; fill: rgb(79,70,229); fill-rule: nonzero; opacity: 1;" vector-effect="non-scaling-stroke"  transform=" translate(0, 0)" d="M 0 -108.54008 C 59.91412 -108.54008 108.54008 -59.91413 108.54008 0 C 108.54008 59.91412 59.91413 108.54008 0 108.54008 C -59.91412 108.54008 -108.54008 59.91413 -108.54008 0 C -108.54008 -59.91412 -59.91413 -108.54008 0 -108.54008 z" stroke-linecap="round" />
</g>
<g transform="matrix(0.24 0 0 0.24 125 169.17)" id="kYdpXWafyIFVRSrp9WyPK"  >
<path style="stroke: rgb(79,70,229); stroke-width: 0; stroke-dasharray: none; stroke-linecap: butt; stroke-dashoffset: 0; stroke-linejoin: miter; stroke-miterlimit: 4; fill: rgb(79,70,229); fill-rule: nonzero; opacity: 1;" vector-effect="non-scaling-stroke"  transform=" translate(0, 0)" d="M 0 -108.54008 C 59.91412 -108.54008 108.54008 -59.91413 108.54008 0 C 108.54008 59.91412 59.91413 108.54008 0 108.54008 C -59.91412 108.54008 -108.54008 59.91413 -108.54008 0 C -108.54008 -59.91412 -59.91413 -108.54008 0 -108.54008 z" stroke-linecap="round" />
</g>
<g transform="matrix(0.24 0 0 0.24 195.64 169.17)" id="ZS0wRfRw2DCgudBQUcDwk"  >
<path style="stroke: rgb(79,70,229); stroke-width: 0; stroke-dasharray: none; stroke-linecap: butt; stroke-dashoffset: 0; stroke-linejoin: miter; stroke-miterlimit: 4; fill: rgb(79,70,229); fill-rule: nonzero; opacity: 1;" vector-effect="non-scaling-stroke"  transform=" translate(0, 0)" d="M 0 -108.54008 C 59.91412 -108.54008 108.54008 -59.91413 108.54008 0 C 108.54008 59.91412 59.91413 108.54008 0 108.54008 C -59.91412 108.54008 -108.54008 59.91413 -108.54008 0 C -108.54008 -59.91412 -59.91413 -108.54008 0 -108.54008 z" stroke-linecap="round" />
</g>
<g transform="matrix(0.24 0 0 0.24 87.75 104.95)" id="Cz3LMuojr21PLnG121fxH"  >
<path style="stroke: rgb(79,70,229); stroke-width: 0; stroke-dasharray: none; stroke-linecap: butt; stroke-dashoffset: 0; stroke-linejoin: miter; stroke-miterlimit: 4; fill: rgb(79,70,229); fill-rule: nonzero; opacity: 1;" vector-effect="non-scaling-stroke"  transform=" translate(0, 0)" d="M 0 -108.54008 C 59.91412 -108.54008 108.54008 -59.91413 108.54008 0 C 108.54008 59.91412 59.91413 108.54008 0 108.54008 C -59.91412 108.54008 -108.54008 59.91413 -108.54008 0 C -108.54008 -59.91412 -59.91413 -108.54008 0 -108.54008 z" stroke-linecap="round" />
</g>
<g transform="matrix(0.24 0 0 0.24 164.82 104.95)" id="zixLRmNPkXXQZF0icI4JQ"  >
<path style="stroke: rgb(79,70,229); stroke-width: 0; stroke-dasharray: none; stroke-linecap: butt; stroke-dashoffset: 0; stroke-linejoin: miter; stroke-miterlimit: 4; fill: rgb(79,70,229); fill-rule: nonzero; opacity: 1;" vector-effect="non-scaling-stroke"  transform=" translate(0, 0)" d="M 0 -108.54008 C 59.91412 -108.54008 108.54008 -59.91413 108.54008 0 C 108.54008 59.91412 59.91413 108.54008 0 108.54008 C -59.91412 108.54008 -108.54008 59.91413 -108.54008 0 C -108.54008 -59.91412 -59.91413 -108.54008 0 -108.54008 z" stroke-linecap="round" />
</g>
<g transform="matrix(0.24 0 0 0.24 125 45.87)" id="neSTSbeKoRvmRBrfTs1wA"  >
<path style="stroke: rgb(79,70,229); stroke-width: 0; stroke-dasharray: none; stroke-linecap: butt; stroke-dashoffset: 0; stroke-linejoin: miter; stroke-miterlimit: 4; fill: rgb(79,70,229); fill-rule: nonzero; opacity: 1;" vector-effect="non-scaling-stroke"  transform=" translate(0, 0)" d="M 0 -108.54008 C 59.91412 -108.54008 108.54008 -59.91413 108.54008 0 C 108.54008 59.91412 59.91413 108.54008 0 108.54008 C -59.91412 108.54008 -108.54008 59.91413 -108.54008 0 C -108.54008 -59.91412 -59.91413 -108.54008 0 -108.54008 z" stroke-linecap="round" />
</g>
</svg>